<svg width="360" height="134" viewBox="0 0 360 134" fill="none" xmlns="http://www.w3.org/2000/svg"><defs id="SvgjsDefs2622"></defs><g id="SvgjsG2623" featurekey="symbolFeature-0" transform="matrix(1.535508632659912,0,0,1.535508632659912,-26.679462571976966,-21.319770095444458)" fill="#000000"><g xmlns="http://www.w3.org/2000/svg" display="none"><rect display="inline" fill="#000000" width="100" height="100"></rect><rect x="-100" y="100" display="inline" fill="#000000" width="100" height="100"></rect><g display="inline"><circle fill="#000000" cx="-50" cy="-50" r="50"></circle><circle fill="#000000" cx="50.333" cy="-50" r="50"></circle><circle fill="#000000" cx="150" cy="-50" r="50"></circle><circle fill="#000000" cx="-50" cy="50" r="50"></circle><circle fill="#000000" cx="50" cy="50" r="50"></circle></g><g display="inline"><circle fill="#000000" cx="-50" cy="150" r="50"></circle><circle fill="#000000" cx="50.333" cy="150" r="50"></circle><circle fill="#000000" cx="150" cy="150" r="50"></circle></g><g display="inline" opacity="0.05"><g><g><g><line fill="none" stroke="#000000" stroke-width="0.5" stroke-miterlimit="10" x1="100" y1="-100" x2="200" y2="0"></line><line fill="none" stroke="#000000" stroke-width="0.5" stroke-miterlimit="10" x1="200" y1="-100" x2="100" y2="0"></line></g></g><g><g><line fill="none" stroke="#000000" stroke-width="0.5" stroke-miterlimit="10" x1="0" y1="-100" x2="100" y2="0"></line><line fill="none" stroke="#000000" stroke-width="0.5" stroke-miterlimit="10" x1="100" y1="-100" x2="0" y2="0"></line></g></g><g><g><line fill="none" stroke="#000000" stroke-width="0.5" stroke-miterlimit="10" x1="-100" y1="-100" x2="0" y2="0"></line><line fill="none" stroke="#000000" stroke-width="0.5" stroke-miterlimit="10" x1="0" y1="-100" x2="-100" y2="0"></line></g></g></g><g><g><g><line fill="none" stroke="#000000" stroke-width="0.5" stroke-miterlimit="10" x1="100" y1="0" x2="200" y2="100"></line><line fill="none" stroke="#000000" stroke-width="0.5" stroke-miterlimit="10" x1="200" y1="0" x2="100" y2="100"></line></g></g><g><g><line fill="none" stroke="#000000" stroke-width="0.5" stroke-miterlimit="10" x1="0" y1="0" x2="100" y2="100"></line><line fill="none" stroke="#000000" stroke-miterlimit="10" x1="49.5" y1="15" x2="49.5" y2="87"></line><line fill="none" stroke="#000000" stroke-miterlimit="10" x1="86" y1="50.5" x2="14" y2="50.5"></line><line fill="none" stroke="#000000" stroke-width="0.5" stroke-miterlimit="10" x1="100" y1="0" x2="0" y2="100"></line><g><path d="M85,15v71H14V15H85 M85.5,14.5H85H14h-0.5V15v71v0.5H14h71h0.5V86V15V14.5L85.5,14.5z"></path></g></g></g><g><g><line fill="none" stroke="#000000" stroke-width="0.5" stroke-miterlimit="10" x1="-100" y1="0" x2="0" y2="100"></line><line fill="none" stroke="#000000" stroke-width="0.5" stroke-miterlimit="10" x1="0" y1="0" x2="-100" y2="100"></line></g></g></g><g><g><g><line fill="none" stroke="#000000" stroke-width="0.5" stroke-miterlimit="10" x1="100" y1="100" x2="200" y2="200"></line><line fill="none" stroke="#000000" stroke-width="0.5" stroke-miterlimit="10" x1="200" y1="100" x2="100" y2="200"></line></g></g><g><g><line fill="none" stroke="#000000" stroke-width="0.5" stroke-miterlimit="10" x1="0" y1="100" x2="100" y2="200"></line><line fill="none" stroke="#000000" stroke-width="0.5" stroke-miterlimit="10" x1="100" y1="100" x2="0" y2="200"></line></g></g><g><g><line fill="none" stroke="#000000" stroke-width="0.5" stroke-miterlimit="10" x1="-100" y1="100" x2="0" y2="200"></line><line fill="none" stroke="#000000" stroke-width="0.5" stroke-miterlimit="10" x1="0" y1="100" x2="-100" y2="200"></line></g></g></g></g></g><g xmlns="http://www.w3.org/2000/svg"><g><path d="M57.712,70.215H42.03c-0.828,0-1.5-0.672-1.5-1.5v-1.113c0-2.39-1.513-4.818-3.113-7.389    c-2.127-3.414-4.536-7.282-4.536-12.396c0-9.296,7.563-16.859,16.858-16.859s16.859,7.563,16.859,16.859    c0,4.357-2.1,7.982-4.13,11.489c-1.676,2.896-3.257,5.629-3.257,8.296v1.113C59.212,69.543,58.54,70.215,57.712,70.215z     M43.521,67.215h12.697c0.126-3.315,1.841-6.278,3.651-9.409c1.834-3.167,3.729-6.438,3.729-9.989    c0-7.642-6.218-13.859-13.859-13.859s-13.858,6.218-13.858,13.859c0,4.257,2.075,7.588,4.082,10.81    C41.646,61.33,43.386,64.122,43.521,67.215z"></path></g><g><path d="M56.599,76.5H43.145c-0.828,0-1.5-0.672-1.5-1.5s0.672-1.5,1.5-1.5h13.454c0.828,0,1.5,0.672,1.5,1.5    S57.427,76.5,56.599,76.5z"></path></g><g><path d="M53.961,82.5h-8.179c-0.828,0-1.5-0.672-1.5-1.5s0.672-1.5,1.5-1.5h8.179c0.828,0,1.5,0.672,1.5,1.5    S54.789,82.5,53.961,82.5z"></path></g><g><path d="M49.739,25.706c-0.828,0-1.5-0.672-1.5-1.5v-7.519c0-0.828,0.672-1.5,1.5-1.5s1.5,0.672,1.5,1.5v7.519    C51.239,25.034,50.567,25.706,49.739,25.706z"></path></g><g><path d="M66.755,32.301c-0.384,0-0.768-0.146-1.061-0.439c-0.586-0.586-0.586-1.535,0-2.121l5.54-5.539    c0.586-0.586,1.535-0.586,2.121,0s0.586,1.535,0,2.121l-5.54,5.539C67.522,32.154,67.139,32.301,66.755,32.301z"></path></g><g><path d="M27.448,71.871c-0.372,0-0.745-0.138-1.036-0.415c-0.599-0.572-0.621-1.521-0.049-2.121l5.54-5.804    c0.573-0.598,1.521-0.621,2.121-0.049c0.599,0.572,0.621,1.521,0.049,2.121l-5.54,5.804    C28.238,71.716,27.844,71.871,27.448,71.871z"></path></g><g><path d="M81,49.316h-7.255c-0.828,0-1.5-0.672-1.5-1.5s0.672-1.5,1.5-1.5H81c0.828,0,1.5,0.672,1.5,1.5S81.828,49.316,81,49.316z"></path></g><g><path d="M25.998,49.316h-7.123c-0.828,0-1.5-0.672-1.5-1.5s0.672-1.5,1.5-1.5h7.123c0.828,0,1.5,0.672,1.5,1.5    S26.826,49.316,25.998,49.316z"></path></g><g><path d="M32.856,32.434c-0.384,0-0.768-0.146-1.061-0.439l-5.276-5.276c-0.586-0.586-0.586-1.535,0-2.121s1.535-0.586,2.121,0    l5.276,5.276c0.586,0.586,0.586,1.535,0,2.121C33.624,32.287,33.24,32.434,32.856,32.434z"></path></g><g><path d="M72.163,71.476c-0.384,0-0.768-0.146-1.061-0.439l-5.276-5.276c-0.586-0.586-0.586-1.535,0-2.121s1.535-0.586,2.121,0    l5.276,5.276c0.586,0.586,0.586,1.535,0,2.121C72.931,71.329,72.547,71.476,72.163,71.476z"></path></g><g><path d="M43.556,55.327c-0.384,0-0.768-0.146-1.061-0.439c-3.998-3.999-3.998-10.506,0-14.505c4.001-3.998,10.507-3.997,14.504,0    c0.586,0.586,0.586,1.535,0,2.121s-1.535,0.586-2.121,0c-2.828-2.828-7.432-2.828-10.262,0c-2.828,2.829-2.828,7.434,0,10.263    c0.586,0.586,0.586,1.536,0,2.121C44.323,55.181,43.939,55.327,43.556,55.327z"></path></g></g></g><g id="SvgjsG2624" featurekey="textGroupContainer" transform="matrix(1,0,0,1,355,0)" fill="#000000"><rect xmlns="http://www.w3.org/2000/svg" y="0" height="1" width="1" opacity="0"></rect><rect xmlns="http://www.w3.org/2000/svg" y="0" x="-235" width="3" height="106"></rect></g><g id="SvgjsG2625" featurekey="vMvB0T-0" transform="matrix(3.8008363246917725,0,0,3.8008363246917725,132.22272940869945,3.66286042709676)" fill="#000000"><path d="M4.7 9.06 l0.02 1.56 l0 1.26 l4.28 0 q0.16 0.6 0.16 1.31 t-0.16 1.31 l-4.28 0 l0 5.5 q-0.64 0.12 -1.6 0.12 t-1.6 -0.12 l0 -13.54 l0.14 -0.12 l8.56 0 q0.12 0.5 0.12 1.25 t-0.41 1.11 t-1.29 0.36 l-3.94 0 z M12.260000000000002 20 l0 -13.66 q0.62 -0.12 1.6 -0.12 t1.62 0.12 l0 13.66 q-0.64 0.12 -1.62 0.12 t-1.6 -0.12 z M25.7 6.34 q0.5 -0.12 1.34 -0.12 q0.96 0 1.66 0.28 l0.08 0.14 l-3.76 6.18 l4.18 6.68 q-1.06 0.7 -1.9 0.7 q-0.88 0 -1.34 -0.28 t-0.92 -0.98 l-2.08 -3.36 l-2.62 4.42 q-0.5 0.12 -1.38 0.12 t-1.68 -0.28 l-0.08 -0.16 l4.12 -6.72 l-3.8 -6.12 q1.06 -0.7 1.9 -0.7 q0.88 0 1.33 0.28 t0.89 0.98 l1.76 2.84 z M34.2 17.14 q-0.54 0 -0.8 -0.02 l-0.86 2.9 q-0.48 0.12 -1.34 0.12 q-0.96 0 -1.56 -0.22 l-0.1 -0.16 l4.4 -13.42 q0.78 -0.12 1.82 -0.12 q1.18 0 1.88 0.14 l4.32 13.44 q-0.7 0.38 -1.58 0.38 q-1.04 0 -1.46 -0.36 t-0.72 -1.38 l-0.38 -1.32 q-0.26 0.02 -0.78 0.02 l-2.84 0 z M34.14 14.620000000000001 l0.8 -0.02 l1.46 0 q0.1 0 0.35 0.01 t0.37 0.01 l-0.34 -1.24 q-0.48 -1.68 -1.1 -4.12 l-0.12 0 q-0.16 0.86 -0.96 3.82 z M53.44 10.56 q0 0.66 -0.2 1.25 t-0.53 1.06 t-0.78 0.82 t-0.93 0.53 q1.04 0.38 1.54 1.84 l0.6 1.7 q0.34 1 1 1.48 q-0.3 0.4 -0.9 0.67 t-1.32 0.27 t-1.12 -0.41 t-0.74 -1.43 l-0.72 -2.1 q-0.22 -0.6 -0.59 -0.92 t-1.11 -0.32 l-0.82 0 l0 5 q-0.64 0.12 -1.6 0.12 t-1.58 -0.12 l0 -13.56 l0.14 -0.14 q1.74 -0.04 2.93 -0.06 t1.87 -0.02 q1.1 0 2 0.27 t1.53 0.81 t0.98 1.36 t0.35 1.9 z M46.82 8.62 l0 3.92 q0.9 0 1.54 -0.03 t1.03 -0.24 t0.59 -0.59 t0.2 -1.1 q0 -1.94 -1.88 -1.94 l-0.83 0 t-0.65 -0.02 z"></path></g></svg>
